<?xml version="1.0" encoding="utf-8"?><!DOCTYPE svg PUBLIC "-//W3C//DTD SVG 1.1//EN" "http://www.w3.org/Graphics/SVG/1.1/DTD/svg11.dtd"><svg version="1.1" xmlns="http://www.w3.org/2000/svg" xmlns:xlink="http://www.w3.org/1999/xlink" x="0px" y="0px" viewBox="0 0 100 99.864" enable-background="new 0 0 100 99.864" xml:space="preserve"><g><path fill="#231F20" d="M36.461,65.4c2.176,5.562,7.25,9.508,13.582,9.508c6.333,0,11.407-3.945,13.583-9.508H36.461z"></path><path fill="#231F20" d="M43.252,47.065c0,2.624-2.128,4.753-4.754,4.753s-4.754-2.129-4.754-4.753c0-2.627,2.128-4.754,4.754-4.754
		S43.252,44.438,43.252,47.065"></path><path fill="#231F20" d="M66.344,47.065c0,2.624-2.128,4.753-4.754,4.753s-4.754-2.129-4.754-4.753c0-2.627,2.128-4.754,4.754-4.754
		S66.344,44.438,66.344,47.065"></path><path fill="#231F20" d="M82.641,53.176c0-18.004-14.594-32.599-32.598-32.599S17.446,35.172,17.446,53.176
		c0,9.657,4.202,18.328,10.873,24.3c-0.148,0.618-0.258,0.961-0.26,0.969c-0.205,0.611-0.045,1.284,0.408,1.74l4.075,4.073
		c0.325,0.327,0.761,0.499,1.202,0.499h0.015c0.92-0.058,1.71-0.756,1.71-1.698c0-0.161-0.023-0.32-0.063-0.467
		c-0.011-0.097-0.022-0.202-0.028-0.304c4.408,2.226,9.389,3.487,14.666,3.487s10.257-1.262,14.668-3.487
		c-0.019,0.2-0.037,0.409-0.058,0.603c-0.073,0.712,0.312,1.396,0.959,1.703c0.234,0.11,0.482,0.163,0.73,0.163
		c0.439,0,0.874-0.171,1.199-0.496l4.074-4.076c0.454-0.453,0.614-1.124,0.414-1.734c-0.005-0.011-0.113-0.352-0.266-0.974
		C78.438,71.507,82.641,62.833,82.641,53.176 M70.758,68.119c0-6.045-2.267-9.26-6.925-9.834c-0.875-0.11-2.258-0.161-4.224-0.161
		c-3.217,0-6.881,0.146-6.918,0.149c-0.91,0.036-1.629,0.783-1.629,1.695v2.716c0,0.938,0.76,1.697,1.698,1.697
		c1.402,0,2.646-0.008,3.755-0.015c0.88-0.006,1.674-0.014,2.39-0.014c5.165,0,5.271,0.261,5.864,1.696
		c0.576,1.382,0.596,5.486,0.402,9.676c-4.326,2.913-9.533,4.616-15.13,4.616s-10.803-1.703-15.129-4.616
		c-0.197-4.189-0.175-8.294,0.397-9.676c0.595-1.437,0.7-1.696,5.868-1.696c0.716,0,1.51,0.008,2.39,0.014
		c1.105,0.007,2.353,0.015,3.756,0.015c0.937,0,1.697-0.76,1.697-1.697v-2.716c0-0.912-0.718-1.659-1.629-1.695
		c-0.037-0.003-3.703-0.149-6.918-0.149c-1.97,0-3.35,0.051-4.225,0.161c-4.661,0.574-6.923,3.79-6.923,9.834
		c0,0.89-0.027,1.727-0.07,2.518c-3.977-4.725-6.383-10.814-6.383-17.46c0-10.509,6.008-19.623,14.764-24.141
		c0.119,0.015,0.237,0.034,0.363,0.022c0.011,0,0.941-0.102,2.396-0.102c3.804,0,10.842,0.657,15.231,5.048
		c0.539,0.536,1.373,1.251,2.401,1.251c0.662,0,1.275-0.301,1.689-0.823c0.315-0.396,0.511-0.953,0.591-1.668
		c1.997,1.8,3.956,3.766,4.508,4.873c0.345,0.69,1.044,1.06,1.733,1.088c0.828,0,1.691-0.07,3.226-4.155
		c4.59,4.867,7.429,11.405,7.429,18.608c0,6.646-2.406,12.733-6.385,17.458C70.783,69.845,70.758,69.008,70.758,68.119"></path></g></svg>