<?xml version="1.0" encoding="utf-8"?><!DOCTYPE svg PUBLIC "-//W3C//DTD SVG 1.1//EN" "http://www.w3.org/Graphics/SVG/1.1/DTD/svg11.dtd"><svg version="1.1" xmlns="http://www.w3.org/2000/svg" xmlns:xlink="http://www.w3.org/1999/xlink" x="0px" y="0px" viewBox="0 0 100 99.864" enable-background="new 0 0 100 99.864" xml:space="preserve"><g><path fill="#231F20" d="M36.461,65.353c2.176,5.561,7.248,9.508,13.582,9.508c6.332,0,11.407-3.948,13.584-9.508H36.461z"></path><path fill="#231F20" d="M50.043,20.53c-18.004,0-32.598,14.594-32.598,32.598c0,18.005,14.594,32.598,32.598,32.598
		c18.001,0,32.6-14.593,32.6-32.598C82.643,35.124,68.045,20.53,50.043,20.53 M50.043,25.962c10.299,0,19.274,5.762,23.883,14.229
		l-2.309,0.914c-1.101-1.552-2.903-2.575-4.944-2.575h-8.864c-1.729,0-3.285,0.736-4.39,1.902c-0.907-0.793-2.077-1.291-3.375-1.291
		s-2.467,0.498-3.374,1.292c-1.105-1.165-2.661-1.903-4.389-1.903h-8.863c-2.043,0-3.848,1.023-4.946,2.575l-2.31-0.914
		C30.769,31.723,39.744,25.962,50.043,25.962 M55.138,44.596c0-0.014,0.002-0.027,0.002-0.043c0.016-0.088,0.053-0.168,0.053-0.26
		c0-0.044-0.009-0.085-0.014-0.132c0.214-1.265,1.306-2.236,2.63-2.236h8.863c1.471,0,2.668,1.198,2.668,2.671v4.416
		c0,1.474-1.197,2.673-2.668,2.673h-8.863c-1.476,0-2.673-1.201-2.673-2.673v-4.416H55.138z M44.95,44.596v4.416
		c0,1.474-1.199,2.673-2.672,2.673h-8.862c-1.473,0-2.673-1.201-2.673-2.673v-4.416c0-1.473,1.2-2.671,2.673-2.671h8.862
		c1.323,0,2.419,0.973,2.625,2.241c0,0.042-0.013,0.083-0.013,0.127c0,0.088,0.04,0.165,0.053,0.253
		C44.944,44.562,44.95,44.581,44.95,44.596 M50.043,80.292c-14.979,0-27.165-12.186-27.165-27.165c0-3.474,0.68-6.786,1.874-9.841
		l2.626,1.039c-0.007,0.092-0.029,0.179-0.029,0.271v4.416c0,3.345,2.721,6.069,6.067,6.069h8.862c3.346,0,6.066-2.725,6.066-6.069
		v-4.416c0-0.131-0.028-0.257-0.04-0.388c0.046-0.927,0.802-1.671,1.738-1.671s1.689,0.742,1.738,1.668
		c-0.007,0.131-0.039,0.258-0.039,0.391v4.416c0,3.345,2.721,6.069,6.066,6.069h8.863c3.346,0,6.064-2.725,6.064-6.069v-4.416
		c0-0.092-0.024-0.179-0.028-0.271l2.628-1.039c1.193,3.055,1.871,6.367,1.871,9.841C77.208,68.107,65.022,80.292,50.043,80.292"></path><path fill="#231F20" d="M42.264,44.378c-0.938,0-1.697,0.759-1.697,1.696c0,0.851-0.694,1.543-1.542,1.543
		c-0.938,0-1.698,0.758-1.698,1.696c0,0.937,0.761,1.698,1.698,1.698c2.721,0,4.936-2.217,4.936-4.938
		C43.96,45.137,43.199,44.378,42.264,44.378"></path><path fill="#231F20" d="M63.627,51.012c2.722,0,4.934-2.216,4.934-4.938c0-0.938-0.76-1.695-1.697-1.695
		c-0.937,0-1.698,0.76-1.698,1.695c0,0.852-0.689,1.544-1.538,1.544c-0.938,0-1.699,0.76-1.699,1.696S62.689,51.012,63.627,51.012"></path></g></svg>