<?xml version="1.0" encoding="utf-8"?><!DOCTYPE svg PUBLIC "-//W3C//DTD SVG 1.1//EN" "http://www.w3.org/Graphics/SVG/1.1/DTD/svg11.dtd"><svg version="1.1" xmlns="http://www.w3.org/2000/svg" xmlns:xlink="http://www.w3.org/1999/xlink" x="0px" y="0px" viewBox="0 0 100 99.864" enable-background="new 0 0 100 99.864" xml:space="preserve"><path fill="#231F20" d="M36.437,65.305c2.175,5.564,7.249,9.508,13.582,9.508c6.332,0,11.406-3.947,13.582-9.508H36.437z"></path><path fill="#231F20" d="M43.228,46.969c0,2.627-2.128,4.754-4.754,4.754s-4.754-2.127-4.754-4.754c0-2.626,2.128-4.754,4.754-4.754
	S43.228,44.343,43.228,46.969"></path><path fill="#231F20" d="M66.318,46.969c0,2.627-2.129,4.754-4.754,4.754c-2.626,0-4.754-2.127-4.754-4.754
	c0-2.626,2.128-4.754,4.754-4.754C64.189,42.215,66.318,44.343,66.318,46.969"></path><path fill="#231F20" d="M50.021,20.483c-18.006,0-32.599,14.594-32.599,32.597c0,18.004,14.593,32.598,32.599,32.598
	c18.001,0,32.597-14.594,32.597-32.598C82.617,35.077,68.021,20.483,50.021,20.483 M50.021,80.247
	c-14.979,0-27.166-12.188-27.166-27.166c0-4.899,1.323-9.489,3.604-13.461c8.485-2.208,12.469-7.57,14.288-11.47
	c3.019,4.218,11.305,11.403,32.5,10.916c2.481,4.097,3.94,8.884,3.94,14.015C77.185,68.061,64.997,80.247,50.021,80.247"></path><path fill="#231F20" d="M66.461,56.551c-0.676-0.615-1.72-0.588-2.356,0.068c-0.174,0.18-0.35,0.352-0.524,0.516
	c-0.734,0.646-2.403,1.742-3.857,1.16c-1.717-0.688-3.372-1.035-4.918-1.035c-2.836,0-4.377,1.182-4.541,1.318
	c-0.102,0.078-0.165,0.193-0.243,0.297c-0.08-0.104-0.145-0.219-0.245-0.297c-0.165-0.137-1.706-1.318-4.541-1.318
	c-1.547,0-3.199,0.348-4.919,1.037c-1.451,0.572-3.122-0.516-3.856-1.162c-0.177-0.164-0.351-0.336-0.525-0.516
	c-0.64-0.656-1.68-0.684-2.355-0.068c-0.679,0.617-0.74,1.668-0.146,2.363c0,0,0.268,0.312,0.74,0.734
	c3.536,3.299,7.04,3.994,9.358,3.994c2.788,0,5.526-1.051,6.49-2.453c0.961,1.402,3.7,2.453,6.488,2.453l0,0
	c2.318,0,5.822-0.695,9.36-3.994c0.471-0.422,0.735-0.734,0.735-0.734C67.202,58.219,67.139,57.168,66.461,56.551"></path></svg>