<?xml version="1.0" encoding="utf-8"?><!DOCTYPE svg PUBLIC "-//W3C//DTD SVG 1.1//EN" "http://www.w3.org/Graphics/SVG/1.1/DTD/svg11.dtd"><svg version="1.1" xmlns="http://www.w3.org/2000/svg" xmlns:xlink="http://www.w3.org/1999/xlink" x="0px" y="0px" viewBox="0 0 100 99.864" enable-background="new 0 0 100 99.864" xml:space="preserve"><path fill="#231F20" d="M83.713,63.42c-0.307-1.176-0.998-2.188-1.795-3.023c0.539-2.354,0.832-4.801,0.832-7.314
	c0-3.237-0.477-6.363-1.355-9.315v-6.982c0-14.195-12.613-17.087-15.566-17.568c-2.828-3.516-6.619-5.299-11.273-5.299
	c-5.681,0-10.936,2.707-12.678,3.704c-2.242-0.827-4.381-1.245-6.372-1.245c-6.93,0-10.835,5.166-12.187,8.422
	c-2.354,0.753-4.153,2.218-5.365,4.362c-3.665,6.498-0.474,17.081-0.336,17.53c0.082,0.27,0.247,0.487,0.45,0.656
	c-0.328,1.861-0.512,3.776-0.512,5.735c0,2.266,0.23,4.477,0.674,6.611c-0.817,0.959-1.577,2.18-1.86,3.617
	c-0.333,1.711,0.04,3.408,1.114,5.035c-0.364,2.723,0.155,7.217,4.194,8.828c0.294,3.182,2.016,7.844,7,8.441
	c0.801,2.887,3.119,7.008,7.777,7.008c0.342,0,0.697-0.023,1.056-0.068c1.113,0.912,3.844,2.791,7.471,2.785
	c1.793,0,3.56-0.457,5.267-1.365c1.907,0.75,3.698,1.125,5.34,1.125l0,0c4.396,0,6.625-2.596,7.539-4.076
	c0.326,0.033,0.654,0.051,0.971,0.051c4.393,0,6.645-3.285,7.477-5.674c5.027-0.57,6.756-5.252,7.053-8.445
	c4.043-1.609,4.561-6.111,4.195-8.828C84.064,66.211,84.006,64.526,83.713,63.42 M50.154,74.815c-6.334,0-11.408-3.947-13.583-9.508
	h27.166C61.561,70.866,56.486,74.815,50.154,74.815 M76.98,57.143c-0.635-0.234-1.295-0.363-1.975-0.363
	c-2.48,0-4.621,1.604-5.838,2.75c-1.293-1.145-2.799-1.744-4.434-1.744c-2.27,0-4.246,1.15-5.26,1.873
	c-1.182-0.479-2.387-0.719-3.594-0.719c-2.564,0-4.57,1.086-5.692,1.879c-1.568-1.201-3.444-1.832-5.489-1.832
	c-1.644,0-3.056,0.404-3.884,0.707c-1.644-1.082-3.34-1.629-5.052-1.629c-1.921,0-3.448,0.699-4.419,1.309
	c-2.235-2.363-4.715-2.896-6.491-2.896c-0.59,0-1.128,0.062-1.61,0.146c-0.152-1.162-0.258-2.338-0.258-3.541
	c0-6.117,2.059-11.75,5.482-16.295c0.696,0.067,1.398,0.112,2.097,0.112c7.955,0,14.592-4.435,18.988-7.368
	c1.542-1.03,2.871-1.92,3.876-2.376c0.682-0.31,1.367-0.543,2.062-0.704c12.432,2.489,21.824,13.481,21.824,26.631
	C77.318,54.467,77.18,55.815,76.98,57.143"></path><path fill="#231F20" d="M44.366,48.122c0,2.231-1.808,4.039-4.039,4.039s-4.039-1.807-4.039-4.039c0-2.23,1.808-4.039,4.039-4.039
	S44.366,45.892,44.366,48.122"></path><path fill="#231F20" d="M63.984,48.122c0,2.231-1.809,4.039-4.039,4.039c-2.231,0-4.039-1.807-4.039-4.039
	c0-2.23,1.808-4.039,4.039-4.039C62.176,44.083,63.984,45.892,63.984,48.122"></path></svg>