<?xml version="1.0" encoding="utf-8"?><!DOCTYPE svg PUBLIC "-//W3C//DTD SVG 1.1//EN" "http://www.w3.org/Graphics/SVG/1.1/DTD/svg11.dtd"><svg version="1.1" xmlns="http://www.w3.org/2000/svg" xmlns:xlink="http://www.w3.org/1999/xlink" x="0px" y="0px" viewBox="0 0 100 99.864" enable-background="new 0 0 100 99.864" xml:space="preserve"><path fill="#231F20" d="M36.418,65.476c2.176,5.562,7.25,9.508,13.582,9.508s11.407-3.946,13.583-9.508H36.418z"></path><path fill="#231F20" d="M43.209,47.14c0,2.625-2.128,4.754-4.754,4.754s-4.754-2.129-4.754-4.754c0-2.627,2.128-4.755,4.754-4.755
	S43.209,44.513,43.209,47.14"></path><path fill="#231F20" d="M66.302,47.14c0,2.625-2.129,4.754-4.754,4.754c-2.627,0-4.755-2.129-4.755-4.754
	c0-2.627,2.128-4.755,4.755-4.755C64.173,42.385,66.302,44.513,66.302,47.14"></path><path fill="#231F20" d="M50,20.655c-18.004,0-32.597,14.593-32.597,32.598C17.403,71.255,31.996,85.85,50,85.85
	c18.003,0,32.598-14.595,32.598-32.598C82.598,35.248,68.003,20.655,50,20.655 M50,80.418c-14.979,0-27.165-12.187-27.165-27.166
	c0-7.963,3.465-15.112,8.94-20.087c1.134,2.174,3.805,5,9.982,7.746c0.178,0.077,0.365,0.116,0.55,0.116
	c0.011,0,0.022-0.001,0.028,0c0.752,0,1.358-0.607,1.358-1.357c0-0.351-0.133-0.669-0.35-0.909c-0.065-0.11-0.154-0.273-0.262-0.48
	c1.774,1.566,4.339,2.749,7.908,2.749h0.014c0.774,0.049,1.372-0.603,1.372-1.357c0-0.456-0.223-0.858-0.563-1.104
	c-0.194-0.199-0.399-0.418-0.604-0.652c2.593,1.58,5.797,3.114,8.466,3.114h0.012c0.716,0.049,1.375-0.603,1.375-1.357
	c0-0.457-0.226-0.859-0.57-1.106c-0.613-0.619-1.207-1.259-1.753-1.883c3.249,2.103,7.274,4.347,9.622,4.347
	c0.417,0,0.812-0.192,1.068-0.522c0.258-0.328,0.353-0.759,0.251-1.163c-0.336-1.339-0.646-3.599-0.439-5.243
	c4.895,4.917,7.925,11.688,7.925,19.154C77.166,68.232,64.979,80.418,50,80.418"></path></svg>