<?xml version="1.0" encoding="utf-8"?><!DOCTYPE svg PUBLIC "-//W3C//DTD SVG 1.1//EN" "http://www.w3.org/Graphics/SVG/1.1/DTD/svg11.dtd"><svg version="1.1" xmlns="http://www.w3.org/2000/svg" xmlns:xlink="http://www.w3.org/1999/xlink" x="0px" y="0px" viewBox="0 0 100 99.864" enable-background="new 0 0 100 99.864" xml:space="preserve"><g><path fill="#231F20" d="M43.154,47.074c0,2.625-2.131,4.753-4.753,4.753c-2.626,0-4.754-2.128-4.754-4.753s2.128-4.754,4.754-4.754
		C41.023,42.32,43.154,44.449,43.154,47.074"></path><path fill="#231F20" d="M66.244,47.074c0,2.625-2.13,4.753-4.754,4.753c-2.626,0-4.754-2.128-4.754-4.753s2.128-4.754,4.754-4.754
		C64.114,42.32,66.244,44.449,66.244,47.074"></path><path fill="#231F20" d="M87.918,43.242c-0.665-2.044-2.21-3.349-3.458-4.106c-0.198-1.667-0.816-3.052-1.843-4.133
		c-1.362-1.435-3.359-2.194-5.78-2.194c-0.509,0-0.979,0.036-1.394,0.083c-5.971-7.494-15.172-12.303-25.498-12.303
		c-10.325,0-19.52,4.804-25.492,12.291c-0.39-0.04-0.821-0.072-1.288-0.072c-2.42,0-4.418,0.761-5.78,2.194
		c-1.027,1.081-1.645,2.466-1.845,4.132c-1.246,0.76-2.79,2.063-3.456,4.107c-0.447,1.362-0.611,3.458,0.838,6.054
		c-0.289,1.504-0.443,3.958,0.894,6.07c0.644,1.016,1.828,2.221,3.919,2.857c2.42,15.611,15.916,27.562,32.211,27.562
		c16.278,0,29.768-11.936,32.202-27.533c2.165-0.627,3.386-1.852,4.039-2.887c1.337-2.111,1.183-4.565,0.893-6.07
		C88.526,46.702,88.363,44.605,87.918,43.242z M49.945,74.919c-6.336,0-11.41-3.947-13.583-9.508h27.165
		C61.352,70.972,56.277,74.919,49.945,74.919z M75.168,51.01c-2.26,0.972-4.688,4.802-6.292,6.356
		c-1.29,1.248-3.36,2.346-6.779,2.346H49.499H36.898c-3.417,0-5.488-1.098-6.779-2.346c-1.604-1.555-4.032-5.385-6.292-6.356
		c-0.329-0.141-0.634-0.25-0.92-0.332c1.27-13.805,12.905-24.656,27.038-24.656c14.071,0,25.676,10.758,27.029,24.482
		C76.455,50.559,75.864,50.711,75.168,51.01z"></path></g></svg>