<?xml version="1.0" encoding="utf-8"?><!DOCTYPE svg PUBLIC "-//W3C//DTD SVG 1.1//EN" "http://www.w3.org/Graphics/SVG/1.1/DTD/svg11.dtd"><svg version="1.1" xmlns="http://www.w3.org/2000/svg" xmlns:xlink="http://www.w3.org/1999/xlink" x="0px" y="0px" viewBox="0 0 100 99.864" enable-background="new 0 0 100 99.864" xml:space="preserve"><g><path fill="#231F20" d="M36.415,65.194c2.179,5.562,7.251,9.508,13.583,9.508s11.407-3.945,13.583-9.508H36.415z"></path><path fill="#231F20" d="M38.453,42.102c-2.626,0-4.754,2.128-4.754,4.753c0,2.627,2.128,4.754,4.754,4.754
		c2.628,0,4.754-2.127,4.754-4.754C43.207,44.23,41.082,42.102,38.453,42.102"></path><path fill="#231F20" d="M61.545,42.102c-2.626,0-4.754,2.128-4.754,4.753c0,2.627,2.128,4.754,4.754,4.754
		c2.628,0,4.752-2.127,4.752-4.754C66.297,44.23,64.173,42.102,61.545,42.102"></path><path fill="#231F20" d="M28.266,80.813c0,1.877-1.52,3.396-3.396,3.396s-3.396-1.52-3.396-3.396c0-1.875,1.52-3.395,3.396-3.395
		S28.266,78.938,28.266,80.813"></path><path fill="#231F20" d="M26.544,86.663c-0.535,0.156-1.09,0.264-1.672,0.264c-2.928,0-5.374-2.07-5.971-4.82
		c-7.261,7.516-9.854,16.469-5.573,15.043c4.075-1.359,3.525,2.715,12.225,2.715C28.122,99.864,24.611,93.338,26.544,86.663"></path><path fill="#231F20" d="M71.73,80.813c0,1.877,1.521,3.396,3.396,3.396c1.875,0,3.395-1.52,3.395-3.396
		c0-1.875-1.52-3.395-3.395-3.395C73.251,77.418,71.73,78.938,71.73,80.813"></path><path fill="#231F20" d="M73.454,86.663c0.537,0.156,1.089,0.264,1.673,0.264c2.929,0,5.374-2.07,5.969-4.82
		c7.263,7.516,9.857,16.469,5.575,15.043c-4.075-1.359-3.524,2.715-12.225,2.715C71.874,99.864,75.387,93.338,73.454,86.663"></path><path fill="#231F20" d="M50,19.013C24.427,6.899,4.197,46.793,22.329,75.272c0.776-0.357,1.634-0.57,2.543-0.57
		c2.836,0,5.211,1.953,5.893,4.582c5.393,3.949,12.04,6.285,19.235,6.285s13.841-2.336,19.231-6.285
		c0.688-2.627,3.056-4.582,5.897-4.582c0.909,0,1.766,0.213,2.541,0.57C95.8,46.793,75.57,6.899,50,19.013 M71.938,68.924
		C66.993,75.704,59.013,80.135,50,80.135c-9.016,0-16.993-4.432-21.939-11.211c2.471-17.245,0.058-19.871-1.15-29.538
		c0,0,23.089-2.716,23.089-9.508c0,6.793,23.091,9.508,23.091,9.508C71.882,49.053,69.471,51.678,71.938,68.924"></path></g></svg>