<?xml version="1.0" encoding="utf-8"?><!DOCTYPE svg PUBLIC "-//W3C//DTD SVG 1.1//EN" "http://www.w3.org/Graphics/SVG/1.1/DTD/svg11.dtd"><svg version="1.1" xmlns="http://www.w3.org/2000/svg" xmlns:xlink="http://www.w3.org/1999/xlink" x="0px" y="0px" viewBox="0 0 100 99.864" enable-background="new 0 0 100 99.864" xml:space="preserve"><g><path fill="#231F20" d="M38.323,42.106c-2.627,0-4.754,2.129-4.754,4.754s2.127,4.753,4.754,4.753s4.754-2.128,4.754-4.753
		S40.951,42.106,38.323,42.106"></path><path fill="#231F20" d="M61.414,51.614c2.625,0,4.754-2.128,4.754-4.753s-2.129-4.754-4.754-4.754
		c-2.626,0-4.754,2.129-4.754,4.754S58.788,51.614,61.414,51.614"></path><path fill="#231F20" d="M77.034,53.495c0,0.717-0.054,1.424-0.107,2.127c-0.722-0.311-1.479-0.467-2.259-0.467
		c-2.481,0-4.624,1.602-5.839,2.75c-1.291-1.146-2.8-1.742-4.434-1.742c-2.27,0-4.247,1.152-5.263,1.869
		c-1.18-0.473-2.383-0.715-3.591-0.715c-2.564,0-4.571,1.086-5.694,1.879c-1.566-1.201-3.442-1.834-5.488-1.834
		c-1.645,0-3.058,0.404-3.884,0.707c-1.644-1.08-3.339-1.629-5.051-1.629c-1.92,0-3.449,0.701-4.42,1.311
		c-2.235-2.363-4.712-2.895-6.491-2.895c-0.641,0-1.218,0.068-1.733,0.168c-0.029-0.508-0.078-1.012-0.078-1.527
		c0-0.973,0.057-1.934,0.156-2.881c-3.081,2.078-5.158,3.342-5.456,3.523c-0.034,0.02-0.073,0.027-0.108,0.043
		c0.029,1.422,0.133,2.824,0.339,4.195c-0.717,0.908-1.353,2.02-1.604,3.312c-0.336,1.713,0.037,3.404,1.111,5.035
		c-0.364,2.721,0.153,7.215,4.194,8.826c0.295,3.182,2.017,7.844,7.002,8.441C29.136,86.879,31.453,91,36.113,91
		c0.344,0,0.698-0.023,1.055-0.066c1.116,0.91,3.845,2.787,7.471,2.787c1.793,0,3.562-0.461,5.267-1.367
		c1.905,0.746,3.702,1.127,5.341,1.127h0.001c4.396,0,6.626-2.6,7.539-4.08c0.329,0.033,0.654,0.049,0.968,0.049
		c4.394,0,6.647-3.281,7.478-5.668c5.026-0.572,6.757-5.254,7.055-8.449c4.044-1.611,4.56-6.107,4.194-8.826
		c1.239-1.922,1.184-3.604,0.892-4.711c-0.257-0.984-0.783-1.848-1.416-2.6c0.297-1.676,0.453-3.4,0.483-5.154
		c-0.614-0.375-2.682-1.654-5.596-3.625C76.961,51.428,77.034,52.452,77.034,53.495 M49.87,75.227
		c-6.334,0-11.406-3.947-13.583-9.508h27.166C61.276,71.28,56.202,75.227,49.87,75.227"></path><path fill="#231F20" d="M82.225,14.48C78.289,8.142,71.596,3.856,62.285,1.646c-0.234,4.978-4.386,14.756-6.391,18.072
		c-0.314,0.521-0.649,1.046-0.994,1.565c-0.948,1.43-2,2.847-3.128,4.25c0.27,0.313,0.562,0.622,0.84,0.934
		c7.216,8.077,16.811,15.429,23.496,20.111c2.659,1.862,4.846,3.301,6.236,4.19c0.092,0.057,0.205,0.129,0.287,0.184
		C84.577,45.692,90.312,27.507,82.225,14.48"></path><path fill="#231F20" d="M50.109,0.001C50.028,0.001,49.946,0,49.866,0c-3.41,0.167-6.575,0.539-9.518,1.085
		c-0.444,0.082-0.898,0.16-1.332,0.25c-0.443,0.095-0.868,0.204-1.3,0.308C28.418,3.851,21.716,8.14,17.777,14.481
		c-8.088,13.025-2.354,31.212-0.407,36.472c0-0.002,0.007-0.004,0.009-0.008c1.317-0.838,3.516-2.273,6.195-4.143
		c6.697-4.672,16.496-12.138,23.827-20.35c0.274-0.308,0.562-0.613,0.828-0.919c0.306-0.354,0.602-0.707,0.896-1.059
		c0.298-0.361,0.589-0.719,0.876-1.08c0.64-0.808,1.249-1.621,1.826-2.434c0.623-0.882,1.209-1.764,1.743-2.648
		c3.147-5.208,6.172-14.806,6.079-17.223C56.701,0.542,53.529,0.17,50.109,0.001"></path></g></svg>