<?xml version="1.0" encoding="utf-8"?><!DOCTYPE svg PUBLIC "-//W3C//DTD SVG 1.1//EN" "http://www.w3.org/Graphics/SVG/1.1/DTD/svg11.dtd"><svg version="1.1" xmlns="http://www.w3.org/2000/svg" xmlns:xlink="http://www.w3.org/1999/xlink" x="0px" y="0px" viewBox="0 0 100 99.864" enable-background="new 0 0 100 99.864" xml:space="preserve"><path fill="#231F20" d="M43.154,47.269c0,2.625-2.131,4.754-4.753,4.754c-2.626,0-4.754-2.129-4.754-4.754s2.128-4.754,4.754-4.754
	C41.023,42.515,43.154,44.644,43.154,47.269"></path><path fill="#231F20" d="M66.244,47.269c0,2.625-2.13,4.754-4.754,4.754c-2.626,0-4.754-2.129-4.754-4.754s2.128-4.754,4.754-4.754
	C64.114,42.515,66.244,44.644,66.244,47.269"></path><path fill="#231F20" d="M36.492,65.607c2.176,5.561,7.25,9.508,13.582,9.508c6.333,0,11.407-3.947,13.583-9.508H36.492z"></path><path fill="#231F20" d="M43.284,47.269c0,2.628-2.128,4.754-4.754,4.754s-4.754-2.126-4.754-4.754c0-2.625,2.128-4.754,4.754-4.754
	S43.284,44.644,43.284,47.269"></path><path fill="#231F20" d="M66.374,47.269c0,2.628-2.128,4.754-4.753,4.754s-4.754-2.126-4.754-4.754c0-2.625,2.129-4.754,4.754-4.754
	S66.374,44.644,66.374,47.269"></path><path fill="#231F20" d="M87.957,78.12c-6.427-1.069-6.692-10.874-6.191-17.115c0.589-2.445,0.907-4.995,0.907-7.623
	c0-18.003-14.597-32.598-32.599-32.598c-18.004,0-32.598,14.593-32.598,32.598c0,2.258,0.229,4.46,0.666,6.587
	c0.604,6.124,0.697,17.021-6.1,18.151c0,0,9.718,5.202,18.751,1.542c5.401,3.971,12.064,6.317,19.28,6.317
	c7.191,0,13.839-2.332,19.229-6.28C78.31,83.283,87.957,78.12,87.957,78.12 M22.909,53.381c0-8.103,3.587-15.369,9.232-20.352
	c5.176,1.993,14.321,4.583,24.726,3.264c0,0-1.981-4.074-2.208-6.112c0,0,4.244,5.604,5.604,5.604c1.032,0,3.797-0.886,7.416-3.057
	c5.841,4.986,9.562,12.388,9.562,20.65c0,14.98-12.187,27.165-27.166,27.165C35.095,80.547,22.909,68.361,22.909,53.381"></path></svg>