<?xml version="1.0" encoding="utf-8"?><!DOCTYPE svg PUBLIC "-//W3C//DTD SVG 1.1//EN" "http://www.w3.org/Graphics/SVG/1.1/DTD/svg11.dtd"><svg version="1.1" xmlns="http://www.w3.org/2000/svg" xmlns:xlink="http://www.w3.org/1999/xlink" x="0px" y="0px" viewBox="0 0 100 99.864" enable-background="new 0 0 100 99.864" xml:space="preserve"><path fill="#231F20" d="M36.64,65.674c2.178,5.562,7.25,9.508,13.582,9.508c6.333,0,11.408-3.945,13.583-9.508H36.64z"></path><path fill="#231F20" d="M43.432,47.339c0,2.625-2.128,4.753-4.754,4.753s-4.754-2.128-4.754-4.753c0-2.627,2.128-4.755,4.754-4.755
	S43.432,44.711,43.432,47.339"></path><path fill="#231F20" d="M66.521,47.339c0,2.625-2.127,4.753-4.754,4.753c-2.625,0-4.754-2.128-4.754-4.753
	c0-2.627,2.129-4.755,4.754-4.755C64.395,42.584,66.521,44.711,66.521,47.339"></path><path fill="#231F20" d="M86.676,66.817c1.694-1.695,4.326-8.859,0-13.188c-1.986-1.988-1.17-4.045-0.304-6.227
	c0.162-0.409,0.324-0.815,0.465-1.217c0.711-2.024,1.841-7.083-2.982-10.297c-4.225-2.817-4.478-4.319-4.77-6.057
	c-0.09-0.549-0.184-1.114-0.396-1.742c-1.625-4.882-4.947-7.255-10.151-7.255h-0.141c-2.2,0-5.417-0.363-7.929-3.506
	c-2.163-2.701-5.841-4.19-10.36-4.19c-4.974,0-10.915,1.994-13.596,5.81l2.186,4.007l1.747,3.202
	c0.309,0.563,0.448,1.182,0.475,1.803c0.038,0.814-0.138,1.633-0.574,2.35c-0.38,0.621-0.916,1.13-1.553,1.479
	c-0.636,0.346-1.357,0.521-2.087,0.506l-3.374-0.079l-5.127-0.123c-0.463,0.525-1.003,0.993-1.65,1.347
	c-0.62,0.339-1.298,0.561-1.992,0.669l-4.406,7.227c-0.105,0.169-0.246,0.308-0.373,0.461c-0.337,0.404-0.718,0.765-1.181,1.016
	c-0.637,0.348-1.354,0.522-2.09,0.508c-1.475-0.037-2.834-0.862-3.542-2.162l-0.52-0.956c-0.854,2.492-0.238,5.014,0.216,6.304
	c0.141,0.4,0.299,0.805,0.465,1.216c0.866,2.182,1.685,4.24-0.306,6.228c-4.324,4.326-1.693,11.492,0,13.186
	c0.857,0.855,2.61,3.256,0.379,7.002c-2.751,4.619-2.271,9.422-0.576,12.131c2.884,4.605,0.083,11.293,0.055,11.359
	c-0.093,0.217-0.067,0.467,0.069,0.66c0.138,0.193,0.363,0.305,0.6,0.285c2.409-0.154,4.167-1.754,5.056-2.779
	c1.958,2.869,5.619,4.053,5.789,4.105c0.064,0.02,0.127,0.029,0.19,0.029c0.196,0,0.385-0.09,0.521-0.244
	c0.176-0.203,0.209-0.508,0.093-0.752c-0.205-0.422-0.051-2.477,0.238-4.49c0.727,0.955,1.056,2.65,1.118,3.32
	c0.025,0.234,0.169,0.441,0.383,0.543c0.212,0.105,0.467,0.09,0.66-0.037c0.181-0.117,4.362-2.902,1.505-10.344
	c-1.73-4.508-1.195-5.66-0.094-7.311c0.402-0.6,0.711-1.197,0.954-1.791c5.594,4.52,12.709,7.23,20.461,7.23
	c7.483,0,14.373-2.525,19.876-6.768c0.173,0.338,0.366,0.676,0.592,1.014c1.101,1.65,1.639,2.805-0.092,7.311
	c-2.859,7.439,1.321,10.229,1.502,10.344c0.202,0.129,0.452,0.145,0.663,0.037c0.213-0.102,0.358-0.309,0.378-0.545
	c0.065-0.666,0.394-2.365,1.123-3.32c0.289,2.014,0.44,4.07,0.238,4.492c-0.13,0.242-0.101,0.541,0.077,0.752
	c0.175,0.211,0.46,0.301,0.727,0.215c0.171-0.055,3.832-1.236,5.788-4.105c0.89,1.025,2.648,2.627,5.058,2.777
	c0.241,0.025,0.461-0.092,0.595-0.283c0.139-0.193,0.166-0.441,0.074-0.66c-0.03-0.066-2.83-6.754,0.049-11.359
	c1.695-2.711,2.176-7.51-0.571-12.131C84.067,70.071,85.818,67.674,86.676,66.817 M69.649,72.401
	c-4.935,5.059-11.816,8.215-19.428,8.215c-11.014,0-20.501-6.602-24.758-16.047c-0.051-1.195,0.215-2.283,0.646-3.004
	c3.95-6.58,2.673-10.395,1.646-13.457l-0.225-0.685c-1.385-4.285,1.056-8.398,1.733-9.418c20.481-1.892,26.598-8.198,27.96-10.031
	c7.349,2.655,12.802,9.423,12.846,9.478c0.034,0.048,3.487,4.74,1.896,9.658l-0.228,0.684c-1.023,3.064-2.299,6.875,1.649,13.458
	c0.945,1.572,1.178,4.887-1.257,7.32C71.097,69.612,70.193,70.922,69.649,72.401"></path><path fill="#231F20" d="M20.489,29.585c0.918,1.635,2.987,2.216,4.625,1.3c1.637-0.919,2.218-2.987,1.299-4.623
	c-0.918-1.637-2.987-2.219-4.624-1.3C20.153,25.879,19.574,27.948,20.489,29.585"></path><path fill="#231F20" d="M17.497,26.487L10.34,26.4c-0.51-0.007-0.987,0.261-1.25,0.7c-0.264,0.44-0.269,0.987-0.017,1.435
	l6.273,11.187c0.254,0.445,0.722,0.725,1.235,0.732c0.254,0.003,0.503-0.062,0.716-0.186c0.22-0.121,0.399-0.297,0.533-0.517
	l3.631-6.113c-1.378-0.468-2.6-1.405-3.367-2.771C17.318,29.482,17.156,27.924,17.497,26.487"></path><path fill="#231F20" d="M30.402,15.143c-0.513-0.004-0.99,0.265-1.25,0.703l-3.732,6.282c1.363,0.471,2.575,1.401,3.334,2.757
	c0.749,1.336,0.919,2.83,0.629,4.223l7.259,0.089c0.254,0.004,0.503-0.06,0.718-0.182c0.218-0.121,0.403-0.3,0.533-0.519
	c0.26-0.44,0.267-0.987,0.017-1.434l-6.277-11.186C31.384,15.428,30.915,15.15,30.402,15.143"></path></svg>