<?xml version="1.0" encoding="utf-8"?><!DOCTYPE svg PUBLIC "-//W3C//DTD SVG 1.1//EN" "http://www.w3.org/Graphics/SVG/1.1/DTD/svg11.dtd"><svg version="1.1" xmlns="http://www.w3.org/2000/svg" xmlns:xlink="http://www.w3.org/1999/xlink" x="0px" y="0px" viewBox="0 0 100 99.864" enable-background="new 0 0 100 99.864" xml:space="preserve"><g><path fill="#FFF" d="M36.568,65.448c2.175,5.562,7.249,9.508,13.582,9.508s11.406-3.945,13.583-9.508H36.568z"></path><path fill="#FFF" d="M43.359,47.112c0,2.625-2.128,4.753-4.754,4.753s-4.754-2.128-4.754-4.753c0-2.627,2.128-4.755,4.754-4.755
		S43.359,44.485,43.359,47.112"></path><path fill="#FFF" d="M66.45,47.112c0,2.625-2.128,4.753-4.754,4.753c-2.627,0-4.754-2.128-4.754-4.753
		c0-2.627,2.127-4.755,4.754-4.755C64.322,42.357,66.45,44.485,66.45,47.112"></path><path fill="#FFF" d="M96.499,76.249c-0.043-0.092-4.454-9.303-2.624-15.041c4.109-12.902,3.065-27.266-2.534-34.932
		c-4.573-6.255-11.839-7.688-20.177-3.797c-0.003,0.001-0.005,0.005-0.009,0.006c-5.757-3.746-13.035-5.934-21.005-5.934
		s-15.249,2.188-21.005,5.934c-0.007-0.001-0.009-0.005-0.012-0.006c-8.338-3.894-15.602-2.46-20.172,3.797
		c-5.606,7.668-6.648,22.03-2.537,34.932C8.257,66.946,3.844,76.157,3.8,76.249c-0.346,0.715-0.151,1.574,0.469,2.068
		c0.308,0.248,0.685,0.369,1.059,0.369c0.373,0,0.751-0.123,1.061-0.369c7.485-5.99,10.145-14.703,10.145-20.342
		c0-2.395,0.011-5.75,1.318-9.113c-0.194,1.427-0.3,2.882-0.3,4.363c0,18.002,14.592,32.598,32.598,32.598
		c18.001,0,32.597-14.596,32.597-32.598c0-1.48-0.108-2.936-0.3-4.363c1.308,3.363,1.319,6.718,1.319,9.113
		c0,5.639,2.655,14.352,10.144,20.342c0.311,0.246,0.686,0.369,1.062,0.369c0.372,0,0.747-0.121,1.056-0.369
		C96.653,77.823,96.846,76.963,96.499,76.249 M50.15,80.391c-14.981,0-27.165-12.188-27.165-27.166
		c0-4.399,1.073-8.544,2.939-12.225h8.287c0.751,0,1.358-0.607,1.358-1.357c0-1.983,0.371-6.735,1.836-10.199
		C39.37,41.003,41.24,41,42.181,41c0.686,0,1.264-0.511,1.35-1.189c0.487-3.91,1.223-8.249,1.938-11.261
		C47.382,41,49.22,41,50.151,41h24.226c1.865,3.681,2.94,7.826,2.94,12.225C77.315,68.204,65.129,80.391,50.15,80.391"></path></g></svg>