<?xml version="1.0" encoding="utf-8"?><!DOCTYPE svg PUBLIC "-//W3C//DTD SVG 1.1//EN" "http://www.w3.org/Graphics/SVG/1.1/DTD/svg11.dtd"><svg version="1.1" xmlns="http://www.w3.org/2000/svg" xmlns:xlink="http://www.w3.org/1999/xlink" x="0px" y="0px" viewBox="0 0 100 99.864" enable-background="new 0 0 100 99.864" xml:space="preserve"><g><path fill="#FFF" d="M36.586,65.553c2.177,5.562,7.251,9.51,13.583,9.51s11.406-3.947,13.582-9.51H36.586z"></path><path fill="#FFF" d="M43.379,47.219c0,2.625-2.128,4.754-4.754,4.754s-4.754-2.129-4.754-4.754c0-2.628,2.128-4.755,4.754-4.755
		S43.379,44.591,43.379,47.219"></path><path fill="#FFF" d="M66.468,47.219c0,2.625-2.128,4.754-4.754,4.754c-2.625,0-4.752-2.129-4.752-4.754
		c0-2.628,2.127-4.755,4.752-4.755C64.34,42.464,66.468,44.591,66.468,47.219"></path><path fill="#FFF" d="M50.133,16.658c-0.367-0.017-0.74-0.024-1.123-0.024c-7.566,0-15.741,2.939-21.874,7.864
		c-5.639,4.529-12.386,13.024-12.531,27.793c-0.008,0.709,0.292,1.162,0.544,1.414c0.261,0.262,0.725,0.574,1.479,0.574
		c0.299,0,0.629-0.059,0.962-0.154c0.427,17.633,14.843,31.803,32.58,31.803c17.787,0,32.24-14.252,32.583-31.957
		c0.138-0.02,0.274-0.039,0.413-0.074c1.359-0.363,2.314-1.6,2.319-3.008C85.484,50.561,85.222,18.181,50.133,16.658 M50.169,80.495
		c-14.98,0-27.165-12.186-27.165-27.166c0-2.162,0.281-4.259,0.762-6.28c1.514-1.679,3.408-3.079,6.326-4.367
		c0.567-0.251,0.895-0.854,0.794-1.466c-0.242-1.452-0.401-3.487-0.295-5.355c0.552,2.221,1.26,4.373,2.069,5.182
		c0.368,0.368,0.914,0.492,1.409,0.319c0.493-0.171,0.844-0.612,0.901-1.131c0.313-2.812,0.812-5.57,1.366-7.782v6.272
		c0,0.418,0.19,0.813,0.522,1.071c0.329,0.258,0.759,0.347,1.164,0.249c0.053-0.015,5.391-1.33,11.951-1.591
		c10.356-0.402,20.988,3.876,26.947,10.346c0.25,1.478,0.413,2.984,0.413,4.533C77.335,68.311,65.147,80.495,50.169,80.495"></path></g></svg>