<?xml version="1.0" encoding="utf-8"?><!DOCTYPE svg PUBLIC "-//W3C//DTD SVG 1.1//EN" "http://www.w3.org/Graphics/SVG/1.1/DTD/svg11.dtd"><svg version="1.1" xmlns="http://www.w3.org/2000/svg" xmlns:xlink="http://www.w3.org/1999/xlink" x="0px" y="0px" viewBox="0 0 100 99.864" enable-background="new 0 0 100 99.864" xml:space="preserve"><path fill="#FFF" d="M36.332,65.428c2.175,5.562,7.249,9.508,13.582,9.508c6.332,0,11.407-3.947,13.583-9.508H36.332z"></path><path fill="#FFF" d="M43.122,47.091c0,2.627-2.128,4.754-4.754,4.754s-4.754-2.127-4.754-4.754c0-2.626,2.128-4.753,4.754-4.753
	S43.122,44.465,43.122,47.091"></path><path fill="#FFF" d="M66.212,47.091c0,2.627-2.128,4.754-4.754,4.754s-4.754-2.127-4.754-4.754c0-2.626,2.128-4.753,4.754-4.753
	S66.212,44.465,66.212,47.091"></path><path fill="#FFF" d="M86.798,66.333l-0.222-0.658c-1.264-3.76-2.569-7.65-2.41-15.069c0.012-0.58,0.043-1.179,0.074-1.8
	c0.286-5.466,0.68-12.95-10.003-25.16c-3.864-4.418-8.989-6.751-14.819-6.751c-4.258,0-7.848,1.24-9.418,1.883
	c-1.571-0.643-5.159-1.883-9.42-1.883c-5.829,0-10.955,2.333-14.818,6.751c-10.684,12.21-10.291,19.694-10.005,25.16
	c0.032,0.621,0.063,1.22,0.074,1.8c0.161,7.419-1.146,11.307-2.407,15.069l-0.221,0.658c-1.238,3.711-5.001,15.005,5.321,18.446
	c3.749,1.25,8.781,5.126,8.832,5.166c0.427,0.33,0.986,0.438,1.504,0.29c0.517-0.147,0.936-0.531,1.124-1.037
	c1.456-3.884,1.748-6.782,1.473-9.127c5.247,3.611,11.601,5.729,18.454,5.729c6.936,0,13.36-2.173,18.644-5.862
	c-0.309,2.368-0.028,5.304,1.456,9.261c0.188,0.506,0.605,0.89,1.125,1.037c0.154,0.044,0.308,0.065,0.465,0.065
	c0.371,0,0.737-0.122,1.039-0.355c0.05-0.039,5.085-3.916,8.832-5.166C91.798,81.338,88.032,70.045,86.798,66.333 M27.123,67.938
	c-1.066-6.345-0.505-11.494,0.229-15.717c2.367-13.606,7.701-20.798,15.423-20.798c2.717,0,4.99,0.888,5.983,1.345
	c0.092,0.082,0.195,0.156,0.303,0.221c0.188,0.112,0.402,0.178,0.622,0.207c0.436,0.12,0.91,0.058,1.31-0.177
	c0.144-0.086,0.273-0.191,0.386-0.312c1.054-0.473,3.247-1.282,5.845-1.282c7.723,0,13.055,7.191,15.42,20.798
	c0.72,4.135,1.277,9.155,0.302,15.317c-4.803,7.688-13.317,12.831-23.032,12.831C40.365,80.368,31.97,75.407,27.123,67.938"></path></svg>