<?xml version="1.0" encoding="utf-8"?><!DOCTYPE svg PUBLIC "-//W3C//DTD SVG 1.1//EN" "http://www.w3.org/Graphics/SVG/1.1/DTD/svg11.dtd"><svg version="1.1" xmlns="http://www.w3.org/2000/svg" xmlns:xlink="http://www.w3.org/1999/xlink" x="0px" y="0px" viewBox="0 0 100 99.864" enable-background="new 0 0 100 99.864" xml:space="preserve"><g><path fill="#FFF" d="M36.441,65.752c2.176,5.559,7.246,9.504,13.578,9.504c6.329,0,11.403-3.945,13.579-9.504H36.441z"></path><path fill="#FFF" d="M35.084,52.514c-0.674,0-1.311-0.402-1.575-1.066c-0.35-0.871,0.074-1.86,0.944-2.207l6.789-2.715
		c0.861-0.35,1.859,0.073,2.207,0.944c0.347,0.871-0.074,1.857-0.947,2.207l-6.788,2.715C35.505,52.475,35.293,52.514,35.084,52.514
		"></path><path fill="#FFF" d="M31.011,48.781c-0.523,0-1.042-0.2-1.44-0.598c-0.795-0.796-0.795-2.085,0-2.881
		c1.232-1.232,7.623-7.386,12.303-7.386c1.125,0,2.036,0.913,2.036,2.036c0,1.125-0.912,2.037-2.036,2.037
		c-2.229,0-6.853,3.623-9.423,6.192C32.052,48.581,31.531,48.781,31.011,48.781"></path><path fill="#FFF" d="M64.955,52.514c-0.211,0-0.422-0.039-0.631-0.121l-6.789-2.715c-0.869-0.35-1.295-1.337-0.945-2.207
		c0.35-0.871,1.338-1.295,2.205-0.946l6.789,2.717c0.873,0.347,1.295,1.335,0.947,2.207C66.266,52.112,65.629,52.514,64.955,52.514"></path><path fill="#FFF" d="M69.029,48.781c-0.521,0-1.041-0.2-1.441-0.596c-2.574-2.572-7.201-6.194-9.422-6.194
		c-1.123,0-2.035-0.912-2.035-2.036s0.912-2.036,2.035-2.036c4.68,0,11.07,6.153,12.303,7.387c0.795,0.795,0.795,2.083,0,2.877
		C70.072,48.581,69.549,48.781,69.029,48.781"></path><path fill="#FFF" d="M68.412,26.635c2.004-10.766-3.795-20.883-4.07-21.419C63.92,4.399,62.928,4.063,62.1,4.464
		c-0.83,0.398-1.193,1.383-0.816,2.225c1.275,2.84,1.064,4.444,0.803,7.79C56.863,3.353,51.947-0.395,49.212,0.032
		c-0.969,0.234-1.193,1.343-0.851,2.182c2.666,9.696-3.331,6.568-6.717,11.665c-0.138-1.612-0.93-2.462,0.572-4.662
		c0.503-0.737,0.35-1.742-0.354-2.293c-0.705-0.554-1.719-0.461-2.312,0.205c-0.312,0.347-6.226,7.053-6.828,18.79
		c-9.184,5.764-15.291,15.972-15.291,27.615c0,17.998,14.589,32.59,32.587,32.59c17.997,0,32.588-14.592,32.588-32.59
		C82.607,42.362,76.982,32.508,68.412,26.635 M50.021,80.69c-14.974,0-27.156-12.184-27.156-27.156
		c0-14.972,12.183-27.157,27.156-27.157c14.973,0,27.155,12.185,27.155,27.157C77.176,68.506,64.994,80.69,50.021,80.69"></path></g></svg>