<?xml version="1.0" encoding="utf-8"?><!DOCTYPE svg PUBLIC "-//W3C//DTD SVG 1.1//EN" "http://www.w3.org/Graphics/SVG/1.1/DTD/svg11.dtd"><svg version="1.1" xmlns="http://www.w3.org/2000/svg" xmlns:xlink="http://www.w3.org/1999/xlink" x="0px" y="0px" viewBox="0 0 100 99.864" enable-background="new 0 0 100 99.864" xml:space="preserve"><path fill="#FFF" d="M36.523,65.661c2.176,5.562,7.25,9.508,13.582,9.508c6.334,0,11.407-3.945,13.583-9.508H36.523z"></path><path fill="#FFF" d="M43.315,47.325c0,2.624-2.128,4.751-4.754,4.751s-4.754-2.127-4.754-4.751c0-2.627,2.128-4.755,4.754-4.755
	S43.315,44.698,43.315,47.325"></path><path fill="#FFF" d="M66.404,47.325c0,2.624-2.127,4.751-4.754,4.751c-2.625,0-4.754-2.127-4.754-4.751
	c0-2.627,2.129-4.755,4.754-4.755C64.277,42.57,66.404,44.698,66.404,47.325"></path><path fill="#FFF" d="M76.873,25.658c-9.115-9.113-17.971-10.17-23.836-10.17c-2.008,0-3.891,0.135-5.554,0.254l-0.19,0.016
	c-10.005,0.711-28.103,7.747-32.476,29.608c-1.888,9.446-2.719,16.864,2.761,33.296c0.761,2.28,1.393,4.852,0.315,6.641
	c-0.745,1.234-2.321,2.061-4.682,2.455c-0.557,0.094-0.996,0.517-1.106,1.064c-0.114,0.549,0.119,1.113,0.592,1.416
	c0.186,0.121,4.635,2.959,9.468,2.959c2.117,0,4-0.541,5.605-1.609c4.375-2.918,5.837-5.844,7.253-8.674
	c0.076-0.151,0.136-0.317,0.202-0.478c4.462,2.294,9.519,3.599,14.882,3.599c17.774,0,32.211-14.225,32.581-31.908
	C86.684,46.795,82.773,31.559,76.873,25.658 M50.105,80.601c-5.289,0-10.213-1.544-14.392-4.168
	c-0.367-3.204-1.393-6.741-2.297-9.847c-0.383-1.312-0.741-2.543-1.012-3.623c-1.322-5.299-1.781-10.299-1.322-14.464
	c1.033-9.409,5.418-11.1,17.137-15.619l2.378-0.922c2.811-1.09,5.502-1.643,8.01-1.643c4.817,0,8.651,2.074,11.666,4.987
	c4.336,4.815,6.998,11.161,6.998,18.133C77.271,68.415,65.084,80.601,50.105,80.601"></path></svg>